<svg width="213" height="55" viewBox="0 0 213 55" fill="none" xmlns="http://www.w3.org/2000/svg">
<g opacity="0.4">
<rect x="0.488281" y="36.3823" width="11.2585" height="11.2585" rx="0.965018" transform="rotate(-67.0844 0.488281 36.3823)" fill="#FF9F43"/>
<rect x="0.488281" y="36.3823" width="11.2585" height="11.2585" rx="0.965018" transform="rotate(-67.0844 0.488281 36.3823)" fill="black" fill-opacity="0.2"/>
</g>
<rect x="10.8586" y="40.7662" width="11.2585" height="11.2585" rx="0.965018" transform="rotate(-67.0844 10.8586 40.7662)" fill="#FF6B6B"/>
<g opacity="0.4">
<rect x="21.2281" y="45.1498" width="11.2585" height="11.2585" rx="0.965018" transform="rotate(-67.0844 21.2281 45.1498)" fill="#10AC84"/>
<rect x="21.2281" y="45.1498" width="11.2585" height="11.2585" rx="0.965018" transform="rotate(-67.0844 21.2281 45.1498)" fill="black" fill-opacity="0.2"/>
</g>
<rect x="4.87219" y="26.0124" width="11.2585" height="11.2585" rx="0.965018" transform="rotate(-67.0844 4.87219 26.0124)" fill="#5F27CD"/>
<rect x="15.2425" y="30.3959" width="11.2585" height="11.2585" rx="0.965018" transform="rotate(-67.0844 15.2425 30.3959)" fill="#FECA57"/>
<rect x="25.6121" y="34.7798" width="11.2585" height="11.2585" rx="0.965018" transform="rotate(-67.0844 25.6121 34.7798)" fill="#FF9F43"/>
<g opacity="0.4">
<rect x="9.2561" y="15.6424" width="11.2585" height="11.2585" rx="0.965018" transform="rotate(-67.0844 9.2561 15.6424)" fill="#10AC84"/>
<rect x="9.2561" y="15.6424" width="11.2585" height="11.2585" rx="0.965018" transform="rotate(-67.0844 9.2561 15.6424)" fill="black" fill-opacity="0.2"/>
</g>
<rect x="19.6263" y="20.026" width="11.2585" height="11.2585" rx="0.965018" transform="rotate(-67.0844 19.6263 20.026)" fill="#FF6B6B"/>
<g opacity="0.4">
<rect x="29.996" y="24.4099" width="11.2585" height="11.2585" rx="0.965018" transform="rotate(-67.0844 29.996 24.4099)" fill="#2E86DE"/>
<rect x="29.996" y="24.4099" width="11.2585" height="11.2585" rx="0.965018" transform="rotate(-67.0844 29.996 24.4099)" fill="black" fill-opacity="0.2"/>
</g>
<rect x="0.00012207" y="19.7368" width="11.2585" height="11.2585" rx="0.965018" transform="rotate(-26.2773 0.00012207 19.7368)" fill="#FF9F43"/>
<rect x="4.98474" y="29.832" width="11.2585" height="11.2585" rx="0.965018" transform="rotate(-26.2773 4.98474 29.832)" fill="#FF6B6B"/>
<rect x="9.96875" y="39.9272" width="11.2585" height="11.2585" rx="0.965018" transform="rotate(-26.2773 9.96875 39.9272)" fill="#10AC84"/>
<rect x="10.0953" y="14.7524" width="11.2585" height="11.2585" rx="0.965018" transform="rotate(-26.2773 10.0953 14.7524)" fill="#5F27CD"/>
<rect x="15.0793" y="24.8477" width="11.2585" height="11.2585" rx="0.965018" transform="rotate(-26.2773 15.0793 24.8477)" fill="#FECA57"/>
<rect x="20.064" y="34.9429" width="11.2585" height="11.2585" rx="0.965018" transform="rotate(-26.2773 20.064 34.9429)" fill="#FF9F43"/>
<rect x="20.1906" y="9.76813" width="11.2585" height="11.2585" rx="0.965018" transform="rotate(-26.2773 20.1906 9.76813)" fill="#10AC84"/>
<rect x="25.1745" y="19.8633" width="11.2585" height="11.2585" rx="0.965018" transform="rotate(-26.2773 25.1745 19.8633)" fill="#FF6B6B"/>
<rect x="30.1592" y="29.9582" width="11.2585" height="11.2585" rx="0.965018" transform="rotate(-26.2773 30.1592 29.9582)" fill="#2E86DE"/>
<path d="M79.3932 17.059H85.405L78.4278 39.0001H73.0302L68.9931 25.7038L64.9559 39.0001H59.5584L52.5811 17.059H58.593L62.323 30.5308L66.3163 17.059H71.6699L75.6632 30.5747L79.3932 17.059Z" fill="#000F34"/>
<path d="M106.293 36.2794C104.04 38.5028 101.29 39.6144 98.0431 39.6144C94.7958 39.6144 92.0459 38.5028 89.7933 36.2794C87.5699 34.0268 86.4582 31.2768 86.4582 28.0295C86.4582 24.7823 87.5699 22.0469 89.7933 19.8236C92.0459 17.5709 94.7958 16.4446 98.0431 16.4446C101.29 16.4446 104.04 17.5709 106.293 19.8236C108.546 22.0469 109.672 24.7823 109.672 28.0295C109.672 31.2768 108.546 34.0268 106.293 36.2794ZM93.7865 32.3739C94.9275 33.5148 96.3463 34.0853 98.0431 34.0853C99.7399 34.0853 101.159 33.5148 102.3 32.3739C103.441 31.2329 104.011 29.7848 104.011 28.0295C104.011 26.2742 103.441 24.8261 102.3 23.6852C101.159 22.5443 99.7399 21.9738 98.0431 21.9738C96.3463 21.9738 94.9275 22.5443 93.7865 23.6852C92.6749 24.8261 92.119 26.2742 92.119 28.0295C92.119 29.7848 92.6749 31.2329 93.7865 32.3739Z" fill="#000F34"/>
<path d="M119.315 20.8328C119.842 19.4286 120.705 18.3754 121.904 17.6733C123.133 16.9712 124.493 16.6202 125.985 16.6202V22.9392C124.259 22.7344 122.709 23.0855 121.334 23.9924C119.988 24.8993 119.315 26.4059 119.315 28.5122V39.0001H113.654V17.059H119.315V20.8328Z" fill="#000F34"/>
<path d="M145.113 8.28253H150.774V39.0001H145.113V36.411C143.445 38.5466 141.076 39.6144 138.004 39.6144C135.049 39.6144 132.519 38.5028 130.412 36.2794C128.335 34.0268 127.297 31.2768 127.297 28.0295C127.297 24.7823 128.335 22.0469 130.412 19.8236C132.519 17.5709 135.049 16.4446 138.004 16.4446C141.076 16.4446 143.445 17.5124 145.113 19.648V8.28253ZM134.669 32.5055C135.839 33.6465 137.302 34.2169 139.057 34.2169C140.813 34.2169 142.261 33.6465 143.402 32.5055C144.543 31.3353 145.113 29.8433 145.113 28.0295C145.113 26.2157 144.543 24.7384 143.402 23.5974C142.261 22.4272 140.813 21.8421 139.057 21.8421C137.302 21.8421 135.839 22.4272 134.669 23.5974C133.528 24.7384 132.958 26.2157 132.958 28.0295C132.958 29.8433 133.528 31.3353 134.669 32.5055Z" fill="#000F34"/>
<path d="M166.395 39.6144C163.089 39.6144 160.324 38.5028 158.101 36.2794C155.907 34.056 154.81 31.3061 154.81 28.0295C154.81 24.753 155.907 22.003 158.101 19.7797C160.324 17.5563 163.089 16.4446 166.395 16.4446C168.53 16.4446 170.476 16.9566 172.231 17.9805C173.986 19.0044 175.318 20.3794 176.224 22.1054L171.354 24.9578C170.915 24.0509 170.242 23.3341 169.335 22.8076C168.457 22.281 167.463 22.0177 166.351 22.0177C164.654 22.0177 163.25 22.5881 162.138 23.7291C161.027 24.8408 160.471 26.2742 160.471 28.0295C160.471 29.7556 161.027 31.1891 162.138 32.33C163.25 33.4417 164.654 33.9975 166.351 33.9975C167.492 33.9975 168.501 33.7489 169.379 33.2515C170.286 32.7249 170.959 32.0082 171.397 31.1013L176.312 33.9098C175.347 35.6358 173.986 37.0254 172.231 38.0786C170.476 39.1025 168.53 39.6144 166.395 39.6144Z" fill="#000F34"/>
<path d="M183.746 30.3553C184.507 33.1052 186.57 34.4802 189.934 34.4802C192.099 34.4802 193.737 33.7489 194.849 32.2861L199.412 34.919C197.248 38.0493 194.059 39.6144 189.846 39.6144C186.219 39.6144 183.308 38.5174 181.114 36.3233C178.919 34.1292 177.822 31.3646 177.822 28.0295C177.822 24.7237 178.905 21.9738 181.07 19.7797C183.235 17.5563 186.014 16.4446 189.407 16.4446C192.625 16.4446 195.273 17.5563 197.35 19.7797C199.456 22.003 200.509 24.753 200.509 28.0295C200.509 28.7609 200.436 29.5362 200.29 30.3553H183.746ZM183.659 25.9671H194.849C194.527 24.4751 193.854 23.3634 192.83 22.632C191.835 21.9007 190.695 21.535 189.407 21.535C187.886 21.535 186.628 21.9299 185.633 22.7198C184.639 23.4804 183.981 24.5628 183.659 25.9671Z" fill="#000F34"/>
<path d="M204.461 39.0001V6.96606H210.122V39.0001H204.461Z" fill="#000F34"/>
</svg>
